<?xml version="1.0" standalone="no"?>
<!DOCTYPE svg PUBLIC "-//W3C//DTD SVG 20010904//EN"
 "http://www.w3.org/TR/2001/REC-SVG-20010904/DTD/svg10.dtd">
<svg version="1.0" xmlns="http://www.w3.org/2000/svg"
 width="960.000000pt" height="540.000000pt" viewBox="0 0 960.000000 540.000000"
 preserveAspectRatio="xMidYMid meet">
<metadata>
Created by potrace 1.16, written by Peter Selinger 2001-2019
</metadata>
<g transform="translate(0.000000,540.000000) scale(0.100000,-0.100000)"
fill="#000000" stroke="none">
<path d="M6675 4509 c-295 -31 -587 -163 -789 -357 -122 -118 -234 -298 -265
-424 -6 -26 -11 -80 -11 -121 0 -95 26 -140 81 -145 47 -4 55 7 85 120 48 181
147 343 297 485 246 234 594 348 924 302 290 -40 497 -212 583 -484 31 -97 38
-295 16 -421 -53 -304 -169 -498 -439 -730 -154 -132 -285 -192 -372 -170 -38
10 -59 65 -50 132 6 47 9 52 36 58 49 10 171 71 232 117 65 48 133 141 143
195 3 19 4 58 2 85 -9 87 -69 126 -182 116 -34 -3 -81 -14 -106 -25 -112 -49
-246 -181 -305 -299 -69 -138 -257 -432 -319 -497 -19 -21 -41 -36 -48 -33
-22 7 -14 149 16 267 47 184 49 189 122 250 36 30 102 96 146 145 149 169 214
304 225 465 6 98 -6 155 -42 198 -101 120 -301 -58 -495 -442 -60 -118 -154
-376 -190 -521 -11 -45 -114 -222 -197 -337 -63 -88 -183 -208 -207 -208 -43
0 -5 148 104 402 70 164 74 197 29 239 -25 23 -40 29 -78 29 -83 0 -119 -39
-203 -219 -78 -165 -243 -406 -352 -514 -133 -131 -141 -58 -24 235 45 113 50
134 46 183 -6 71 -35 105 -88 105 -51 0 -94 -31 -222 -158 l-108 -107 0 58 c0
48 -4 62 -24 82 -13 13 -36 27 -50 31 -67 17 -190 -94 -333 -300 -46 -65 -83
-115 -83 -110 0 5 12 47 25 93 32 109 32 151 0 189 -48 57 -111 50 -180 -20
-22 -23 -116 -90 -209 -149 l-168 -108 -43 57 c-24 31 -87 106 -140 166 -53
60 -93 112 -88 116 4 4 40 26 78 50 173 107 351 273 424 398 105 179 90 324
-42 406 -41 25 -61 30 -134 34 -108 6 -174 -8 -292 -64 -212 -100 -368 -259
-416 -427 -36 -125 -13 -308 51 -400 14 -22 22 -43 18 -47 -14 -14 -187 -68
-316 -100 -332 -81 -679 -110 -913 -75 -264 40 -431 142 -513 312 -36 76 -37
81 -37 188 1 99 4 118 31 186 83 206 287 407 529 520 183 86 346 123 530 122
154 -1 259 -24 345 -77 96 -60 109 -118 49 -210 -51 -77 -27 -109 66 -92 45 9
119 77 140 128 22 55 23 154 1 196 -30 59 -131 116 -261 149 -106 26 -357 23
-492 -5 -288 -62 -560 -208 -764 -412 -114 -114 -167 -186 -211 -291 -131
-312 47 -635 417 -758 148 -49 257 -65 460 -65 297 0 616 63 920 181 l90 35
49 -54 c130 -143 236 -278 236 -302 0 -2 -40 -33 -88 -68 -200 -147 -369 -309
-504 -483 -118 -151 -152 -239 -146 -373 5 -131 49 -200 158 -251 45 -21 70
-25 140 -25 334 0 667 303 771 702 28 108 36 288 16 373 -13 53 -44 134 -75
191 -2 4 22 22 52 42 86 55 196 116 196 108 0 -4 -9 -36 -20 -72 -37 -122 -53
-248 -41 -331 21 -148 58 -229 106 -229 31 0 46 25 80 130 38 123 124 290 209
409 41 56 77 105 80 108 3 4 -12 -45 -33 -108 -77 -231 -85 -304 -38 -346 57
-52 111 -57 160 -13 39 34 51 60 106 237 38 120 47 140 100 205 32 40 76 90
98 111 l40 38 -40 -118 c-31 -92 -41 -138 -45 -210 -5 -91 -5 -92 25 -121 61
-61 164 -60 246 2 51 39 154 157 249 285 39 53 74 100 78 104 4 4 4 -16 0 -45
-14 -102 15 -195 70 -223 122 -63 313 83 509 390 l51 80 0 -76 c0 -91 13 -133
53 -176 56 -59 126 -54 215 17 58 47 151 157 220 262 l50 78 7 -50 c17 -124
119 -184 272 -160 314 50 690 380 842 737 110 258 138 543 76 758 -96 329
-349 526 -726 565 -113 11 -148 11 -264 -1z m-40 -928 c10 -17 -22 -145 -53
-214 -17 -37 -54 -99 -82 -139 -60 -86 -176 -216 -185 -207 -17 18 167 395
247 503 47 65 61 75 73 57z m-2936 -332 c38 -8 58 -20 82 -46 30 -34 31 -40
27 -97 -13 -153 -155 -314 -422 -476 -79 -48 -75 -50 -122 43 -35 68 -47 144
-35 213 31 163 146 299 301 351 74 26 99 27 169 12z m3356 -159 c10 -15 -21
-75 -62 -121 -39 -43 -107 -91 -176 -122 l-38 -17 12 22 c45 85 126 180 188
220 47 30 66 34 76 18z m-3571 -1195 c47 -179 -13 -405 -158 -594 -215 -279
-494 -300 -449 -34 23 134 125 293 295 459 108 107 280 246 290 236 4 -4 14
-34 22 -67z"/>
<path d="M5675 3200 c-44 -18 -70 -59 -70 -112 0 -43 4 -53 33 -79 27 -24 41
-29 86 -29 45 0 59 4 84 28 79 74 28 203 -80 201 -18 0 -42 -4 -53 -9z"/>
<path d="M7405 2333 c-624 -39 -1736 -307 -2475 -596 -498 -195 -1010 -467
-1205 -641 -76 -67 -48 -65 45 3 211 157 654 373 1090 533 461 168 1268 369
1765 438 404 56 867 75 1105 47 138 -17 160 -13 160 31 -1 77 -77 163 -162
182 -45 9 -200 11 -323 3z"/>
</g>
</svg>
